HIERARCHY
ROOT Hips
{
    OFFSET 0.000000 0.000000 0.000000
    CHANNELS 6 Xposition Yposition Zposition Zrotation Xrotation Yrotation
    JOINT Spine
    {
        OFFSET -0.000000 0.083210 0.000000
        CHANNELS 3 Zrotation Xrotation Yrotation
        JOINT Spine1
        {
            OFFSET -0.000000 0.256334 0.000000
            CHANNELS 3 Zrotation Xrotation Yrotation
            JOINT Neck
            {
                OFFSET -0.000000 0.275576 0.002912
                CHANNELS 3 Zrotation Xrotation Yrotation
                JOINT Head
                {
                    OFFSET -0.000000 0.157287 0.020295
                    CHANNELS 3 Zrotation Xrotation Yrotation
                    End Site
                    {
                        OFFSET -0.000000 0.202951 0.000000
                    }
                }
            }
            JOINT LeftShoulder
            {
                OFFSET 0.041044 0.235234 -0.000041
                CHANNELS 3 Zrotation Xrotation Yrotation
                JOINT LeftArm
                {
                    OFFSET 0.117964 0.000000 0.000000
                    CHANNELS 3 Zrotation Xrotation Yrotation
                    JOINT LeftForeArm
                    {
                        OFFSET 0.291248 0.000000 0.000000
                        CHANNELS 3 Zrotation Xrotation Yrotation
                        JOINT LeftHand
                        {
                            OFFSET 0.245673 0.000000 0.000000
                            CHANNELS 3 Zrotation Xrotation Yrotation
                            End Site
                            {
                                OFFSET 0.152213 0.000000 0.000000
                            }
                        }
                    }
                }
            }
            JOINT RightShoulder
            {
                OFFSET -0.040052 0.235234 -0.000041
                CHANNELS 3 Zrotation Xrotation Yrotation
                JOINT RightArm
                {
                    OFFSET -0.117964 0.000000 0.000000
                    CHANNELS 3 Zrotation Xrotation Yrotation
                    JOINT RightForeArm
                    {
                        OFFSET -0.291248 0.000000 0.000000
                        CHANNELS 3 Zrotation Xrotation Yrotation
                        JOINT RightHand
                        {
                            OFFSET -0.245673 0.000000 0.000000
                            CHANNELS 3 Zrotation Xrotation Yrotation
                            End Site
                            {
                                OFFSET -0.152213 0.000000 0.000000
                            }
                        }
                    }
                }
            }
        }
    }
    JOINT LeftUpLeg
    {
        OFFSET 0.101475 0.000000 0.000000
        CHANNELS 3 Zrotation Xrotation Yrotation
        JOINT LeftLeg
        {
            OFFSET -0.000000 -0.446535 0.000000
            CHANNELS 3 Zrotation Xrotation Yrotation
            JOINT LeftFoot
            {
                OFFSET -0.000000 -0.400037 0.000000
                CHANNELS 3 Zrotation Xrotation Yrotation
                JOINT LeftToeBase
                {
                    OFFSET -0.000000 -0.065959 0.152213
                    CHANNELS 3 Zrotation Xrotation Yrotation
                    End Site
                    {
                        OFFSET -0.000000 0.000000 0.040590
                    }
                }
            }
        }
    }
    JOINT RightUpLeg
    {
        OFFSET -0.101475 0.000000 0.000000
        CHANNELS 3 Zrotation Xrotation Yrotation
        JOINT RightLeg
        {
            OFFSET -0.000000 -0.446535 0.000000
            CHANNELS 3 Zrotation Xrotation Yrotation
            JOINT RightFoot
            {
                OFFSET -0.000000 -0.400037 0.000000
                CHANNELS 3 Zrotation Xrotation Yrotation
                JOINT RightToeBase
                {
                    OFFSET -0.000000 -0.065959 0.152213
                    CHANNELS 3 Zrotation Xrotation Yrotation
                    End Site
                    {
                        OFFSET -0.000000 0.000000 0.040590
                    }
                }
            }
        }
    }
}
MOTION
Frames:    7
Frame Time:    0.008333
0.611003    0.935734    0.166722    7.310345    1.084309    -90.606735    -1.951926    12.321548    3.836012    2.120117    8.525788    1.050840    5.318722    11.462121    -3.848146    2.352144    6.942470    -3.172597    0.106563    7.695552    -27.493416    -19.763178    47.746662    -63.750938    8.622552    -41.494461    -23.879965    -13.210284    -40.817394    7.997981    4.097402    9.913390    39.463768    28.794292    34.947563    40.160419    -16.236876    -45.930031    1.592780    36.435215    -42.943649    11.973157    14.023230    -18.122881    5.190251    -4.187681    20.712456    9.055571    -7.970836    -5.618388    -0.487152    0.139062    3.677542    -1.182059    -12.315960    -20.110052    1.134365    2.298144    21.036821    10.934191    10.074779    -9.170053    -16.422817    0.000700    1.825624    0.072268    
0.610893    0.935719    0.166864    7.315263    1.081913    -90.621391    -1.944163    12.317720    3.830630    2.128247    8.545282    1.048361    5.335144    11.453147    -3.849888    2.336595    6.949231    -3.168158    0.105779    7.687436    -27.482412    -19.755554    47.752235    -63.776867    8.612386    -41.425495    -23.924660    -13.014520    -40.748047    8.134505    4.105570    9.904140    39.454865    28.801304    34.927914    40.161484    -16.234846    -45.926167    1.597276    36.384083    -42.961899    11.897633    14.020334    -18.130175    5.188037    -4.200310    20.742325    9.075829    -7.969870    -5.642886    -0.488085    0.140021    3.680265    -1.189976    -12.324710    -20.120245    1.113514    2.290093    21.052214    10.971548    10.076213    -9.175887    -16.423573    0.000708    1.827652    0.073278    
0.610779    0.935706    0.167017    7.319973    1.078221    -90.635468    -1.936611    12.315522    3.825513    2.136311    8.560698    1.046074    5.357004    11.457328    -3.858397    2.309280    6.949312    -3.166508    0.106660    7.688107    -27.473652    -19.735508    47.755566    -63.812130    8.600182    -41.387585    -23.967720    -12.829718    -40.709431    8.255710    4.112977    9.893084    39.448414    28.808634    34.923717    40.161129    -16.252455    -45.925785    1.585556    36.342793    -42.982113    11.831252    14.014531    -18.146408    5.185630    -4.211394    20.797260    8.804974    -7.936935    -5.723004    -0.201578    0.140315    3.680368    -1.192459    -12.334355    -20.128757    1.100226    2.281886    21.065769    10.998506    10.086783    -9.183802    -16.420853    0.000630    1.826772    0.065141    
0.610656    0.935685    0.167183    7.321386    1.075362    -90.648293    -1.925224    12.314775    3.818225    2.144379    8.577501    1.043138    5.364498    11.470192    -3.860901    2.299716    6.949028    -3.164910    0.100831    7.690159    -27.462149    -19.702438    47.762135    -63.850277    8.592445    -41.353012    -24.007139    -12.673026    -40.673817    8.363365    4.118980    9.889302    39.440861    28.812906    34.908440    40.160057    -16.256475    -45.930759    1.582235    36.292652    -43.005661    11.774574    14.008786    -18.153816    5.183884    -4.223912    20.835009    8.822598    -7.925542    -5.752457    -0.203234    0.140222    3.672979    -1.192321    -12.345830    -20.131027    1.083750    2.276132    21.075750    11.035548    10.092188    -9.192817    -16.430737    0.000707    1.825794    0.073025    
0.610532    0.935662    0.167359    7.322675    1.071463    -90.660492    -1.915039    12.315014    3.813769    2.152679    8.589523    1.041181    5.372652    11.496507    -3.867370    2.297175    6.945558    -3.167899    0.076959    7.651553    -27.476622    -19.726349    47.812370    -63.819870    8.600274    -41.311344    -24.043097    -12.550338    -40.629723    8.462371    4.128010    9.888060    39.422157    28.815058    34.897511    40.164585    -16.265997    -45.941429    1.565499    36.292866    -43.021946    11.760264    14.002518    -18.160563    5.175606    -4.241092    20.871853    8.849479    -7.917581    -5.780823    -0.209579    0.139547    3.670572    -1.186791    -12.357407    -20.131966    1.075827    2.268750    21.083029    11.051405    10.103611    -9.194487    -16.425909    0.000777    1.816124    0.079492    
0.610400    0.935641    0.167535    7.322810    1.071225    -90.671455    -1.901585    12.315187    3.808203    2.162733    8.602499    1.038862    5.389829    11.526202    -3.877283    2.272130    6.952825    -3.168149    0.065791    7.659242    -27.469490    -19.696884    47.813072    -63.850689    8.595306    -41.264156    -24.069084    -12.440492    -40.581875    8.544378    4.131129    9.888643    39.403988    28.807856    34.895531    40.179890    -16.284365    -45.959618    1.536454    36.308338    -43.041702    11.764156    13.999250    -18.167706    5.178751    -4.252916    20.912685    8.857572    -7.912209    -5.811903    -0.206513    0.141642    3.668746    -1.204765    -12.365453    -20.127657    1.082196    2.267854    21.084133    11.050276    10.115301    -9.195350    -16.419868    0.000757    1.809287    0.077007    
0.610255    0.935619    0.167722    7.318631    1.069277    -90.683685    -1.888559    12.314898    3.803167    2.168172    8.619044    1.036921    5.413983    11.560374    -3.893123    2.241142    6.964207    -3.171590    0.059808    7.658390    -27.463930    -19.679466    47.816624    -63.873360    8.584231    -41.219055    -24.091551    -12.345203    -40.536900    8.612036    4.139685    9.877640    39.388714    28.816820    34.903244    40.178635    -16.297649    -45.973877    1.516848    36.336536    -43.052341    11.780400    13.991991    -18.170317    5.190392    -4.258385    20.955486    8.860301    -7.903400    -5.840980    -0.210859    0.141257    3.669696    -1.201403    -12.375391    -20.116388    1.089952    2.266940    21.080284    11.038714    10.124849    -9.196311    -16.403074    0.000751    1.808959    0.076368    
